# xmcd
# 
# Track frame offsets:
#     150
#     9697
#     22876
#     33006
#     44036
#     58903
#     68920
#     80180
#     91511
#     103481
# 
# Disc length: 1666
# 
# Revision: 0
# Processed by: cddbd v1.5.2PL0 Copyright (c) Steve Scherf et al.
# Submitted via: fre:ac v1.0.17
# 
DISCID=8106800a
DTITLE=Troy Hendrix - Pickin' on the Square: Songs from the Heartland
DYEAR=0
DGENRE=Country
TTITLE0=Pickin' on the Square
TTITLE1=Deep Elen Blues
TTITLE2=I Should'a Stayed in the Wagonyard
TTITLE3=There is a Time
TTITLE4=The Old Man in the Shanty
TTITLE5=Julianne
TTITLE6=High on a Mountaintop
TTITLE7=Too Old to Die Young
TTITLE8=Lord, I Hope this Day is Good
TTITLE9=Play Dixie for Me
EXTD=Corinth, Mississippi
EXTT0=written by John Searcy
EXTT1=
EXTT2=
EXTT3=
EXTT4=
EXTT5=
EXTT6=
EXTT7=
EXTT8=
EXTT9=Vocal by Jan Pike
PLAYORDER=
